<svg width="600" height="85" viewBox="0 0 600 85" fill="none" xmlns="http://www.w3.org/2000/svg">
<path d="M0 37.534V34.8596L43.4362 8.39213L46.9406 14.1098L10.3288 35.7818L47.0328 57.0849L43.5284 62.6182L0 37.534Z" fill="black"/>
<path d="M54.8356 1.10665H102.791V17.9831H95.9663V7.93102H82.5942V58.8372H92.7385V65.6615H64.7955V58.8372H74.9398V7.93102H61.66V17.9831H54.8356V1.10665Z" fill="black"/>
<path d="M111.7 42.6062C111.7 35.167 113.637 29.2956 117.51 24.992C121.383 20.6268 126.917 18.4442 134.11 18.4442C137.983 18.4442 141.303 19.0898 144.07 20.3809C146.898 21.6105 149.234 23.3012 151.079 25.4531C152.923 27.6049 154.276 30.1563 155.136 33.1074C156.059 36.0585 156.52 39.2248 156.52 42.6062C156.52 46.2951 156.028 49.6458 155.044 52.6583C154.06 55.6094 152.616 58.1301 150.71 60.2205C148.804 62.3108 146.437 63.9401 143.609 65.1082C140.842 66.2149 137.676 66.7682 134.11 66.7682C130.298 66.7682 126.978 66.1534 124.15 64.9238C121.322 63.6327 118.986 61.9112 117.141 59.7594C115.297 57.6075 113.913 55.0561 112.991 52.105C112.13 49.1539 111.7 45.9877 111.7 42.6062ZM119.354 42.6062C119.354 44.758 119.6 46.9099 120.092 49.0617C120.646 51.2135 121.506 53.1502 122.674 54.8716C123.843 56.5931 125.349 57.9764 127.193 59.0216C129.099 60.0668 131.405 60.5894 134.11 60.5894C139.028 60.5894 142.717 59.0831 145.176 56.0705C147.697 52.9965 148.957 48.5084 148.957 42.6062C148.957 40.3929 148.681 38.2411 148.127 36.1507C147.636 33.9989 146.775 32.0622 145.545 30.3408C144.377 28.6193 142.84 27.236 140.934 26.1908C139.09 25.1457 136.815 24.6231 134.11 24.6231C129.191 24.6231 125.503 26.1294 123.043 29.1419C120.584 32.1545 119.354 36.6426 119.354 42.6062Z" fill="black"/>
<path d="M193.925 1.10665H208.865V49.8917C208.865 50.445 208.896 51.152 208.957 52.0128C209.019 52.812 209.08 53.6728 209.142 54.595C209.265 55.5172 209.388 56.4394 209.511 57.3616C209.634 58.2223 209.757 58.9909 209.88 59.6671H216.059V65.6615H203.793L202.871 58.5605H202.502C201.149 60.8968 199.121 62.8641 196.415 64.4626C193.772 65.9997 190.698 66.7682 187.193 66.7682C180.246 66.7682 175.112 64.8315 171.792 60.9582C168.534 57.0235 166.905 50.9369 166.905 42.6984C166.905 38.8251 167.458 35.413 168.565 32.4619C169.671 29.4493 171.239 26.9593 173.268 24.992C175.358 22.9631 177.848 21.4261 180.738 20.3809C183.627 19.3357 186.855 18.8131 190.421 18.8131C191.712 18.8131 192.85 18.8439 193.833 18.9054C194.878 18.9668 195.831 19.0591 196.692 19.182C197.553 19.305 198.352 19.4894 199.09 19.7353C199.889 19.9198 200.75 20.135 201.672 20.3809V7.28548H193.925V1.10665ZM188.392 60.5894C192.142 60.5894 195.094 59.6364 197.245 57.7305C199.397 55.7631 200.873 52.8428 201.672 48.9695V27.5742C200.319 26.6519 198.782 25.9756 197.061 25.5453C195.401 25.1149 193.188 24.8997 190.421 24.8997C185.503 24.8997 181.629 26.3445 178.801 29.2341C175.973 32.0623 174.559 36.5504 174.559 42.6984C174.559 45.2191 174.774 47.5862 175.204 49.7995C175.696 51.9513 176.465 53.8265 177.51 55.425C178.617 57.0235 180.061 58.2838 181.844 59.206C183.627 60.1282 185.81 60.5894 188.392 60.5894Z" fill="black"/>
<path d="M222.294 42.6062C222.294 35.167 224.23 29.2956 228.103 24.992C231.977 20.6268 237.51 18.4442 244.703 18.4442C248.577 18.4442 251.897 19.0898 254.663 20.3809C257.491 21.6105 259.828 23.3012 261.672 25.4531C263.516 27.6049 264.869 30.1563 265.73 33.1074C266.652 36.0585 267.113 39.2248 267.113 42.6062C267.113 46.2951 266.621 49.6458 265.638 52.6583C264.654 55.6094 263.209 58.1301 261.303 60.2205C259.397 62.3108 257.03 63.9401 254.202 65.1082C251.435 66.2149 248.269 66.7682 244.703 66.7682C240.891 66.7682 237.572 66.1534 234.743 64.9238C231.915 63.6327 229.579 61.9112 227.735 59.7594C225.89 57.6075 224.507 55.0561 223.585 52.105C222.724 49.1539 222.294 45.9877 222.294 42.6062ZM229.948 42.6062C229.948 44.758 230.194 46.9099 230.686 49.0617C231.239 51.2135 232.1 53.1502 233.268 54.8716C234.436 56.5931 235.942 57.9764 237.787 59.0216C239.693 60.0668 241.998 60.5894 244.703 60.5894C249.622 60.5894 253.311 59.0831 255.77 56.0705C258.291 52.9965 259.551 48.5084 259.551 42.6062C259.551 40.3929 259.274 38.2411 258.721 36.1507C258.229 33.9989 257.368 32.0622 256.139 30.3408C254.971 28.6193 253.434 27.236 251.528 26.1908C249.683 25.1457 247.408 24.6231 244.703 24.6231C239.785 24.6231 236.096 26.1294 233.637 29.1419C231.178 32.1545 229.948 36.6426 229.948 42.6062Z" fill="black"/>
<path d="M312.081 47.7706H287.273L281.371 65.6615H273.809L295.389 1.10665H304.427L326.191 65.6615H318.168L312.081 47.7706ZM289.671 41.1307H309.96L300.461 10.7899H299.354L289.671 41.1307Z" fill="black"/>
<path d="M336.484 35.6896C336.484 35.1363 336.453 34.4293 336.391 33.5685C336.391 32.6463 336.361 31.7241 336.299 30.8019C336.238 29.8182 336.145 28.8652 336.022 27.943C335.961 27.0208 335.869 26.2216 335.746 25.5453H329.567V19.5509H341.832L342.755 26.0064H343.216C344.876 23.8546 346.966 22.0716 349.487 20.6576C352.069 19.182 355.204 18.4442 358.893 18.4442C365.472 18.4442 370.421 20.2579 373.741 23.8853C377.061 27.5127 378.721 33.4456 378.721 41.684C378.721 45.5573 378.137 49.0617 376.969 52.1972C375.862 55.2713 374.264 57.8842 372.173 60.036C370.083 62.1879 367.562 63.8478 364.611 65.016C361.66 66.1841 358.402 66.7682 354.836 66.7682C353.545 66.7682 352.376 66.7067 351.331 66.5837C350.348 66.5223 349.425 66.3993 348.565 66.2149C347.765 66.0919 346.966 65.9074 346.167 65.6615C345.368 65.4156 344.507 65.1082 343.585 64.7393V84.1058H336.484V35.6896ZM357.694 25.1764C355.85 25.1764 354.098 25.5145 352.438 26.1908C350.839 26.8671 349.395 27.7586 348.103 28.8652C346.874 29.9719 345.859 31.2015 345.06 32.5541C344.261 33.9067 343.769 35.2593 343.585 36.6118V57.6383C344.937 58.5605 346.443 59.2983 348.103 59.8516C349.825 60.3434 352.069 60.5894 354.836 60.5894C359.754 60.5894 363.689 58.9909 366.64 55.7938C369.591 52.5354 371.067 47.8013 371.067 41.5918C371.067 36.3659 370.021 32.3389 367.931 29.5108C365.902 26.6212 362.49 25.1764 357.694 25.1764Z" fill="black"/>
<path d="M391.78 35.6896C391.78 35.1363 391.75 34.4293 391.688 33.5685C391.688 32.6463 391.657 31.7241 391.596 30.8019C391.534 29.8182 391.442 28.8652 391.319 27.943C391.258 27.0208 391.165 26.2216 391.043 25.5453H384.864V19.5509H397.129L398.051 26.0064H398.512C400.172 23.8546 402.263 22.0716 404.784 20.6576C407.366 19.182 410.501 18.4442 414.19 18.4442C420.769 18.4442 425.718 20.2579 429.038 23.8853C432.358 27.5127 434.018 33.4456 434.018 41.684C434.018 45.5573 433.434 49.0617 432.265 52.1972C431.159 55.2713 429.56 57.8842 427.47 60.036C425.38 62.1879 422.859 63.8478 419.908 65.016C416.957 66.1841 413.698 66.7682 410.132 66.7682C408.841 66.7682 407.673 66.7067 406.628 66.5837C405.644 66.5223 404.722 66.3993 403.861 66.2149C403.062 66.0919 402.263 65.9074 401.464 65.6615C400.664 65.4156 399.804 65.1082 398.881 64.7393V84.1058H391.78V35.6896ZM412.991 25.1764C411.147 25.1764 409.395 25.5145 407.735 26.1908C406.136 26.8671 404.691 27.7586 403.4 28.8652C402.171 29.9719 401.156 31.2015 400.357 32.5541C399.558 33.9067 399.066 35.2593 398.881 36.6118V57.6383C400.234 58.5605 401.74 59.2983 403.4 59.8516C405.122 60.3434 407.366 60.5894 410.132 60.5894C415.051 60.5894 418.986 58.9909 421.937 55.7938C424.888 52.5354 426.363 47.8013 426.363 41.5918C426.363 36.3659 425.318 32.3389 423.228 29.5108C421.199 26.6212 417.787 25.1764 412.991 25.1764Z" fill="black"/>
<path d="M535.112 0L540.922 2.58219L507.261 78.5725L501.452 75.9903L535.112 0Z" fill="black"/>
<path d="M556.472 62.6182L552.967 57.0849L589.671 35.7818L553.059 14.1098L556.564 8.39213L600 34.8596V37.534L556.472 62.6182Z" fill="black"/>
</svg>
